<?xml version="1.0" encoding="UTF-8"?><svg xmlns="http://www.w3.org/2000/svg" viewBox="0 0 30.24 15.37"><defs><style>.d{fill:#fff;}</style></defs><g id="a"/><g id="b"><g id="c"><g><path class="d" d="M27.7,5.28c0-.58-.47-1.04-1.04-1.04s-1.04,.47-1.04,1.04,.47,1.04,1.04,1.04,1.04-.47,1.04-1.04Z"/><path class="d" d="M10.91,6.28c.58,0,1.04-.47,1.04-1.04s-.47-1.04-1.04-1.04-1.04,.47-1.04,1.04,.47,1.04,1.04,1.04Z"/><path class="d" d="M30.16,1.13c-.1-.13-.4-.21-.56-.25-.34-.09-3.38-.56-3.38-.56h.01c-1.7-.3-3.17-.32-3.5-.32-.98,.01-1.37,.04-2.22,.1-1.4,.16-2.07,.37-2.72,.5-.52,.1-1.04,.15-1.32,.17-.71,.05-2.13,.05-2.84,0-.26-.02-.86-.11-1.22-.17-1.19-.37-2.69-.5-2.7-.5C8.88,.04,8.57,.02,7.58,0c-.42,0-1.84,.02-3.61,.33C3.98,.33,.98,.78,.64,.88c-.16,.04-.46,.12-.56,.25C0,1.23-.02,1.7,.02,1.82c.04,.14,.59,.35,.64,.66,.29,2.48,.76,4.27,1.41,4.9,.09,.11,.35,.39,.73,.66,.97,.68,2.79,.82,4.14,.82,.81,0,1.51-.07,2.24-.17,.06-.18,.12-.35,.23-.52-1.86,.25-4.61,.46-6.33-.53-.36-.25-.58-.51-.63-.57-.37-.44-.52-.88-.75-1.85,0,0-.41-1.68-.36-2.68,0-1.03,.87-1.35,1.68-1.51,3.35-.66,4.2-.63,6.71-.45,0,0,1.67,.15,2.8,.55,.07,.02,.24,.11,.36,.18,.11,.07,.37,.26,.51,.6,.1,.25,.12,.61,.1,.81-.08,1.35-.09,1.42-.24,2.06-.08,.37-.2,.82-.4,1.26l.61-.22c.11-.32,.2-.64,.27-.94,.14-.63,.17-.8,.23-1.83,.05-.39,.12-.86,.25-1.01,.18-.2,1.63-.21,1.82-.01,.2,.23,.27,1.11,.29,1.47h0c.04,.63,.08,.86,.2,1.38,.09,.4,.21,.83,.38,1.25,.42,.15,.74,.44,.9,.85,.01-.06,.04-.11,.05-.17-.51-.67-.73-1.45-.86-2.05-.14-.64-.16-.7-.24-2.06-.01-.2,0-.56,.1-.81,.27-.53,.46-.6,.86-.78,1.18-.35,2.8-.55,2.8-.55,1.02-.06,1.19-.08,2.22-.1,.39,0,2.41,.03,4.5,.55,.79,.22,1.68,.48,1.68,1.51,.05,1-.36,2.68-.36,2.68-.39,1.43-.48,1.72-1.38,2.42s-2.77,.73-3.86,.73c-.75,0-1.29-.05-1.99-.14,.32,.16,.62,.35,.87,.58,.42,.03,.62,.04,1.13,.05,1.35,0,3.17-.14,4.14-.82,.38-.27,.64-.55,.73-.66,.29-.34,.47-.72,.6-1.15s.51-1.28,.81-3.76c.06-.31,.6-.52,.64-.66,.04-.12,.01-.59-.07-.69Z"/><path class="d" d="M21.71,8.77c-.34-.25-.88-.49-1.31-.68-.46-.21-.86-.43-.84-.86,.05-1.48,2.36-1.26,3.24-.87-.12-.99-.88-1.49-2.04-1.5h-.03c-1.34,0-2.45,1.01-2.7,2.21-.04,.21-.07,.42-.04,.63,.06,.85,.67,1.39,1.64,1.82,.97,.43,1.36,.66,1.36,1.15,0,.55-.61,1.07-1.33,1.15-.85,.07-1.33-.02-2.24-1.08-.42,.89,.04,1.95,.98,2.24,.38,.11,.77,.16,1.15,.12,1.75-.19,3.02-1.31,3.01-2.8,0-.67-.3-1.13-.86-1.52Z"/><path class="d" d="M11.8,6.68c-.95,.39-1.99,1.04-2.34,1.96,0,0-1.37,3.95-1.37,3.96-.34,1.01-.67,1.24-1.45,1.2-.46-.09-1.13-.41-1.11-1.21-1.11,.26-.87,1.67,.07,2.25,1.57,1.1,3.76,.42,4.21-1.58,0,0,1.89-6.22,2-6.59Z"/><path class="d" d="M17.72,8.34c.16-1.11-.4-2.13-1.62-2.08-.96,0-1.89,.71-2.77,1.41l-.02-1.53-1.23,.44c-.3,.98-1.99,6.58-2.33,7.68,1,0,1.87-.65,2.16-1.6l1.1-3.64c.9-.82,1.54-1.19,2.08-1.19,.64,0,.92,.33,.85,.98-.03,.24-1.63,5.45-1.63,5.45,1,0,1.87-.65,2.16-1.6l.99-3.24c.13-.4,.2-.72,.24-1.08Z"/></g></g></g></svg>